# xmcd CD database file
#
# Track frame offsets:
#	183
#	13810
#	30808
#	47585
#	60565
#	96723
#	114008
#	135965
#	152745
#	165693
#	191718
#	206390
#	224250
#	252785
#	284918
#
# Disc length: 4056 seconds
#
# Revision: 0
# Processed by: cddbd v1.5.2PL0 Copyright (c) Steve Scherf et al.
# Submitted via: CDex 1.51
#
DISCID=cd0fd60f
DTITLE=Midnight Flash - Live
DYEAR=1993
DGENRE=Blues
TTITLE0=Can't hold out
TTITLE1=Try to be true
TTITLE2=Pupped liberation
TTITLE3=Strange kind a feeling
TTITLE4=Mean black spider
TTITLE5=Little thief
TTITLE6=Sweeping leaves
TTITLE7=A change is gonna come
TTITLE8=Trust me
TTITLE9=Resistance
TTITLE10=Strong man
TTITLE11=Resurection shuffle
TTITLE12=Waving her good-bye
TTITLE13=Stoned faces
TTITLE14=Red house
EXTD=YEAR: 1993
EXTT0=
EXTT1=
EXTT2=
EXTT3=
EXTT4=
EXTT5=
EXTT6=
EXTT7=
EXTT8=
EXTT9=
EXTT10=
EXTT11=
EXTT12=
EXTT13=
EXTT14=
PLAYORDER=
